<?xml version="1.0" encoding="UTF-8"?>
<svg id="Layer_2" data-name="Layer 2" xmlns="http://www.w3.org/2000/svg" viewBox="0 0 256 256">
  <defs>
    <style>
      .cls-1 {
        fill: none;
      }

      .cls-2 {
        fill: #f5f5f4;
      }
    </style>
  </defs>
  <g id="favicon-dark">
    <g id="favicon-dark-2" data-name="favicon-dark">
      <rect class="cls-1" width="256" height="256"/>
      <path class="cls-2" d="M226.23,188.49l-94.97,54.83c-2.02,1.17-4.51,1.17-6.53,0L29.77,188.49c-2.02-1.17-3.27-3.32-3.27-5.66V73.17c0-2.33,1.25-4.49,3.27-5.66L124.73,12.68c2.02-1.17,4.51-1.17,6.53,0l94.97,54.83c2.02,1.17,3.27,3.32,3.27,5.66v109.66c0,2.33-1.25,4.49-3.27,5.66Zm-7.73-11.34V78.85c0-2.1-1.12-4.03-2.93-5.08L130.43,24.62c-1.82-1.05-4.05-1.05-5.87,0L39.43,73.77c-1.82,1.05-2.93,2.99-2.93,5.08v98.3c0,2.1,1.12,4.03,2.93,5.08l85.13,49.15c1.82,1.05,4.05,1.05,5.87,0l85.13-49.15c1.82-1.05,2.93-2.99,2.93-5.08Zm-3-1.63V80.48c0-2.03-1.08-3.91-2.84-4.93L130.34,28.03c-1.76-1.02-3.93-1.02-5.69,0L42.34,75.55c-1.76,1.02-2.84,2.89-2.84,4.93v95.04c0,2.03,1.08,3.91,2.84,4.93l82.31,47.52c1.76,1.02,3.93,1.02,5.69,0l82.31-47.52c1.76-1.02,2.84-2.89,2.84-4.93ZM71.96,86h96.89c1.29,0,2.34,1.05,2.34,2.34v25.64c0,1.52-1.42,2.63-2.89,2.27l-15.91-1.89c-.95-.23-1.63-1.09-1.63-2.07v-4.97c0-1.18-.96-2.13-2.13-2.13h-43.29c-1.18,0-2.13,.96-2.13,2.13v41.36c0,1.18,.96,2.13,2.13,2.13h43.29c1.18,0,2.13-.96,2.13-2.13v-4.97c0-.98,.67-1.84,1.63-2.07l15.91-1.89c1.47-.36,2.89,.75,2.89,2.27v25.64c0,1.29-1.05,2.34-2.34,2.34H86.34c-1.29,0-2.34-1.05-2.34-2.34V101.41c0-1.51-.62-2.95-1.71-4l-11.94-7.38c-1.53-1.45-.5-4.03,1.61-4.03Z"/>
    </g>
  </g>
</svg>