<?xml version="1.0" encoding="UTF-8"?>
<svg id="Layer_2" data-name="Layer 2" xmlns="http://www.w3.org/2000/svg" xmlns:xlink="http://www.w3.org/1999/xlink" viewBox="0 0 256 256">
  <defs>
    <style>
      .cls-1 {
        fill: #44403c;
      }

      .cls-2 {
        fill: url(#Sunset);
      }
    </style>
    <symbol id="Logo" viewBox="0 0 184 192.5">
      <path class="cls-1" d="M181.04,151.08l-86.08,40.63c-1.83,1.06-4.09,1.06-5.92,0L2.96,151.08c-1.83-1.06-2.96-3.01-2.96-5.13V46.56c0-2.12,1.13-4.07,2.96-5.13L89.04,.79c1.83-1.06,4.09-1.06,5.92,0l86.08,40.63c1.83,1.06,2.96,3.01,2.96,5.13v99.39c0,2.12-1.13,4.07-2.96,5.13Zm-7.01-10.28V51.7c0-1.9-1.01-3.66-2.66-4.61L94.21,11.61c-1.65-.95-3.67-.95-5.32,0L11.72,47.1c-1.65,.95-2.66,2.71-2.66,4.61v89.1c0,1.9,1.01,3.66,2.66,4.61l77.16,35.49c1.65,.95,3.67,.95,5.32,0l77.16-35.49c1.65-.95,2.66-2.71,2.66-4.61Zm-2.72-1.48V53.18c0-1.84-.98-3.54-2.58-4.47L94.13,14.7c-1.6-.92-3.56-.92-5.16,0L14.36,48.71c-1.6,.92-2.58,2.62-2.58,4.47v86.15c0,1.84,.98,3.54,2.58,4.47l74.61,34.01c1.6,.92,3.56,.92,5.16,0l74.61-34.01c1.6-.92,2.58-2.62,2.58-4.47ZM42.11,58.18h87.82c1.17,0,2.12,.95,2.12,2.12v23.24c0,1.37-1.29,2.38-2.62,2.06l-14.42-1.71c-.87-.21-1.47-.99-1.47-1.88v-4.5c0-1.07-.87-1.94-1.94-1.94h-39.24c-1.07,0-1.94,.87-1.94,1.94v37.49c0,1.07,.87,1.94,1.94,1.94h39.24c1.07,0,1.94-.87,1.94-1.94v-4.5c0-.89,.61-1.67,1.47-1.88l14.42-1.71c1.33-.33,2.62,.68,2.62,2.06v23.24c0,1.17-.95,2.12-2.12,2.12H55.14c-1.17,0-2.12-.95-2.12-2.12v-60.06c0-1.37-.56-2.68-1.55-3.62l-10.83-6.69c-1.38-1.32-.45-3.65,1.46-3.65Z"/>
    </symbol>
    <linearGradient id="Sunset" x1="-.35" y1="225.75" x2="257.15" y2="29.64" gradientUnits="userSpaceOnUse">
      <stop offset=".11" stop-color="#9333ea"/>
      <stop offset=".62" stop-color="#ec4899"/>
      <stop offset=".81" stop-color="#f97316"/>
      <stop offset=".94" stop-color="#facc15"/>
    </linearGradient>
    <symbol id="background-rounded" viewBox="0 0 256 256">
      <rect class="cls-2" y="0" width="256" height="256" rx="23.86" ry="23.86"/>
    </symbol>
  </defs>
  <g id="favicon">
    <g id="favicon-light-round">
      <use width="256" height="256" xlink:href="#background-rounded"/>
      <use width="184" height="192.5" transform="translate(36 31.5)" xlink:href="#Logo"/>
    </g>
  </g>
</svg>