<?xml version="1.0" encoding="UTF-8"?>
<svg id="Layer_2" data-name="Layer 2" xmlns="http://www.w3.org/2000/svg" xmlns:xlink="http://www.w3.org/1999/xlink" viewBox="0 0 256 256">
  <defs>
    <style>
      .cls-1 {
        fill: none;
      }

      .cls-2 {
        fill: url(#linear-gradient);
      }

      .cls-3 {
        clip-path: url(#clippath);
      }

      .cls-4 {
        fill: #44403c;
      }
    </style>
    <linearGradient id="linear-gradient" x1="-26.67" y1="245.79" x2="312.13" y2="-12.24" gradientUnits="userSpaceOnUse">
      <stop offset="0" stop-color="#0284c7"/>
      <stop offset=".35" stop-color="#7dd3fc"/>
      <stop offset=".71" stop-color="#bbf7d0"/>
      <stop offset="1" stop-color="#fde047"/>
    </linearGradient>
    <symbol id="background-sky-round" viewBox="0 0 256 256">
      <rect class="cls-2" width="256" height="256" rx="25.67" ry="25.67"/>
    </symbol>
    <clipPath id="clippath">
      <path id="logo-path" class="cls-1" d="M188.04,154.68l-86.08,40.53c-1.83,1.06-4.09,1.06-5.92,0L9.96,154.68c-1.83-1.06-2.96-3.01-2.96-5.12V50.43c0-2.11,1.13-4.06,2.96-5.12L96.04,4.79c1.83-1.06,4.09-1.06,5.92,0l86.08,40.53c1.83,1.06,2.96,3.01,2.96,5.12v99.13c0,2.11-1.13,4.06-2.96,5.12Zm-7.01-10.25V55.57c0-1.9-1.01-3.65-2.66-4.59L101.21,15.58c-1.65-.95-3.67-.95-5.32,0L18.72,50.97c-1.65,.95-2.66,2.7-2.66,4.59v88.87c0,1.9,1.01,3.65,2.66,4.59l77.16,35.39c1.65,.95,3.67,.95,5.32,0l77.16-35.39c1.65-.95,2.66-2.7,2.66-4.59Zm-5.86-3.17V58.73c0-1.77-.94-3.4-2.48-4.28L101.02,21.87c-1.53-.88-3.42-.88-4.95,0L24.4,54.45c-1.53,.88-2.48,2.51-2.48,4.28v82.54c0,1.77,.94,3.4,2.48,4.28l71.67,32.58c1.53,.88,3.42,.88,4.95,0l71.67-32.58c1.53-.88,2.48-2.51,2.48-4.28ZM49.11,62.03h87.82c1.17,0,2.12,.95,2.12,2.11v23.18c0,1.37-1.29,2.38-2.62,2.05l-14.42-1.71c-.87-.21-1.47-.99-1.47-1.87v-4.49c0-1.07-.87-1.93-1.94-1.93h-39.24c-1.07,0-1.94,.86-1.94,1.93v37.39c0,1.07,.87,1.93,1.94,1.93h39.24c1.07,0,1.94-.86,1.94-1.93v-4.49c0-.89,.61-1.66,1.47-1.87l14.42-1.71c1.33-.33,2.62,.68,2.62,2.05v23.18c0,1.17-.95,2.11-2.12,2.11H62.14c-1.17,0-2.12-.95-2.12-2.11v-59.9c0-1.37-.56-2.67-1.55-3.61l-10.83-6.67c-1.38-1.31-.45-3.64,1.46-3.64Z"/>
    </clipPath>
    <symbol id="logo-dark" viewBox="0 0 198 201">
      <g id="logo-dark-2" data-name="logo-dark">
        <g class="cls-3">
          <rect id="dark-bg" class="cls-4" width="198" height="201"/>
        </g>
      </g>
    </symbol>
  </defs>
  <g id="favicon">
    <g id="favicon-dark-round">
      <use width="256" height="256" xlink:href="#background-sky-round"/>
      <use width="198" height="201" transform="translate(29 27.5)" xlink:href="#logo-dark"/>
    </g>
  </g>
</svg>