<?xml version="1.0" encoding="UTF-8"?>
<svg id="Download_Light_" data-name="Download (Light)" xmlns="http://www.w3.org/2000/svg" viewBox="0 0 207 32.34">
  <rect x="-.18" width="207" height="32.34" style="fill: #0284c7;"/>
  <path d="M29.82,15.73l1.36-1.36c.48-.47,1.25-.45,1.72,.03,.46,.47,.46,1.22,0,1.69l-3.44,3.44c-.47,.47-1.24,.48-1.71,0,0,0,0,0,0,0l-3.44-3.44c-.47-.48-.47-1.25,0-1.72,.48-.47,1.25-.47,1.72,0h0l1.36,1.36v-6.86c0-.67,.54-1.22,1.22-1.22s1.22,.54,1.22,1.22v6.86Zm-8.51,6.52h14.59c.67,0,1.22,.54,1.22,1.22s-.54,1.22-1.22,1.22h-14.59c-.67,0-1.22-.54-1.22-1.22s.54-1.22,1.22-1.22Z" style="fill: #fff;"/>
  <g>
    <path d="M50.78,21.56V13.16h2.94c.84,0,1.56,.15,2.16,.46,.6,.3,1.06,.75,1.38,1.35,.32,.6,.48,1.33,.48,2.21v.24c0,.9-.16,1.65-.49,2.27s-.8,1.08-1.42,1.4c-.62,.32-1.36,.47-2.22,.47h-2.82Zm1.8-1.5h.9c.43,0,.83-.08,1.19-.25,.36-.16,.65-.44,.87-.83,.22-.39,.33-.91,.33-1.57v-.24c0-.62-.1-1.12-.31-1.49-.2-.37-.48-.64-.82-.79s-.72-.23-1.14-.23h-1.02v5.4Z" style="fill: #fff;"/>
    <path d="M61.94,21.7c-.58,0-1.12-.12-1.6-.35-.48-.24-.86-.6-1.15-1.09-.29-.49-.43-1.1-.43-1.82v-.24c0-.69,.14-1.27,.43-1.73,.29-.47,.67-.82,1.15-1.06,.48-.24,1.01-.35,1.6-.35s1.12,.12,1.6,.35c.48,.24,.86,.59,1.15,1.06,.29,.47,.43,1.05,.43,1.73v.24c0,.71-.14,1.31-.43,1.8-.29,.49-.67,.85-1.15,1.1-.48,.24-1.01,.37-1.6,.37Zm0-1.34c.3,0,.57-.07,.8-.22s.42-.36,.56-.64c.14-.28,.21-.64,.21-1.06v-.24c0-.39-.07-.72-.21-.98-.14-.26-.33-.47-.56-.61-.23-.14-.5-.21-.8-.21s-.56,.07-.8,.21c-.24,.14-.42,.34-.56,.61-.14,.26-.21,.59-.21,.98v.24c0,.43,.07,.79,.21,1.07s.33,.49,.56,.64,.5,.22,.8,.22Z" style="fill: #fff;"/>
    <path d="M67.43,21.56l-1.78-6.36h1.71l1.03,4.2,1.28-4.2h1.46l1.34,4.2,1.09-4.2h1.56l-1.78,6.36h-1.6l-1.38-4.44-1.36,4.44h-1.6Z" style="fill: #fff;"/>
    <path d="M76.1,21.56v-6.36h1.46v.94c.15-.29,.4-.54,.74-.76,.34-.22,.8-.32,1.38-.32,.77,0,1.34,.21,1.72,.62,.38,.41,.57,1.01,.57,1.81v4.08h-1.6v-3.72c0-.48-.1-.84-.29-1.08-.19-.24-.53-.36-1.01-.36-.33,0-.6,.07-.8,.2-.21,.13-.36,.31-.46,.53-.1,.22-.14,.46-.14,.71v3.72h-1.58Z" style="fill: #fff;"/>
    <path d="M85.52,21.63c-.49,0-.89-.06-1.2-.19s-.54-.35-.68-.67c-.14-.32-.22-.76-.22-1.33v-6.28h1.58v6.08c0,.41,.06,.68,.18,.83,.12,.14,.35,.22,.7,.22,.09,0,.16,0,.23,0,.06,0,.13,0,.19-.02v1.33s-.11,.02-.21,.02c-.1,0-.2,.01-.3,.01h-.27Z" style="fill: #fff;"/>
    <path d="M90.08,21.7c-.58,0-1.12-.12-1.6-.35-.48-.24-.87-.6-1.15-1.09s-.43-1.1-.43-1.82v-.24c0-.69,.14-1.27,.43-1.73s.67-.82,1.15-1.06c.48-.24,1.01-.35,1.6-.35s1.12,.12,1.6,.35c.48,.24,.86,.59,1.15,1.06,.29,.47,.43,1.05,.43,1.73v.24c0,.71-.14,1.31-.43,1.8-.29,.49-.67,.85-1.15,1.1-.48,.24-1.01,.37-1.6,.37Zm0-1.34c.3,0,.57-.07,.8-.22,.23-.14,.42-.36,.56-.64,.14-.28,.21-.64,.21-1.06v-.24c0-.39-.07-.72-.21-.98-.14-.26-.33-.47-.56-.61-.23-.14-.5-.21-.8-.21s-.56,.07-.8,.21c-.23,.14-.42,.34-.56,.61-.14,.26-.21,.59-.21,.98v.24c0,.43,.07,.79,.21,1.07,.14,.28,.33,.49,.56,.64,.24,.14,.5,.22,.8,.22Z" style="fill: #fff;"/>
    <path d="M96.29,21.7c-.45,0-.83-.09-1.15-.26s-.56-.41-.73-.71c-.17-.3-.25-.65-.25-1.03,0-.64,.19-1.12,.57-1.44,.38-.32,.95-.48,1.71-.48h1.9v-.3c0-.42-.09-.71-.28-.88-.19-.17-.49-.25-.89-.25-.36,0-.62,.06-.78,.19-.16,.12-.25,.28-.27,.46h-1.6c.03-.36,.14-.69,.36-.98,.21-.3,.52-.53,.91-.7,.39-.17,.87-.26,1.43-.26s1.02,.08,1.42,.24,.72,.42,.94,.78c.22,.36,.34,.84,.34,1.43v2.44c0,.34,0,.63,.02,.88s.04,.5,.07,.74h-1.48c-.03-.18-.05-.31-.05-.4,0-.09,0-.23,0-.41-.18,.26-.44,.49-.8,.68-.36,.19-.81,.28-1.37,.28Zm.5-1.22c.26,0,.5-.05,.74-.14,.23-.09,.43-.24,.57-.43,.15-.2,.22-.45,.22-.75v-.3h-1.6c-.3,0-.54,.07-.71,.21-.17,.14-.26,.33-.26,.57,0,.26,.09,.46,.26,.61,.18,.15,.43,.23,.77,.23Z" style="fill: #fff;"/>
    <path d="M103.7,21.7c-.55,0-1.03-.12-1.44-.36-.4-.24-.71-.6-.94-1.09-.22-.48-.33-1.09-.33-1.82v-.24c0-.69,.11-1.26,.32-1.73,.22-.46,.53-.82,.94-1.06,.41-.24,.89-.36,1.42-.36,.44,0,.82,.09,1.16,.28,.33,.19,.6,.43,.81,.74v-2.92h1.58v8.4h-1.49v-.94c-.15,.3-.4,.55-.74,.76s-.78,.32-1.31,.32Zm.37-1.34c.32,0,.6-.06,.83-.18s.42-.31,.55-.56c.13-.25,.2-.57,.2-.94v-.72c0-.35-.07-.64-.2-.87-.14-.23-.33-.4-.57-.52-.24-.12-.51-.17-.81-.17-.43,0-.78,.15-1.06,.45-.27,.3-.41,.75-.41,1.35v.24c0,.65,.14,1.13,.42,1.45,.28,.32,.63,.47,1.04,.47Z" style="fill: #fff;"/>
    <path d="M115.34,21.7c-.73,0-1.38-.14-1.95-.43s-1.02-.75-1.34-1.37-.49-1.45-.49-2.48v-.24c0-.74,.1-1.37,.29-1.9,.19-.53,.46-.96,.81-1.3,.35-.34,.75-.58,1.21-.74,.46-.16,.95-.23,1.47-.23,.48,0,.92,.06,1.33,.17s.77,.29,1.09,.52c.32,.24,.58,.54,.78,.91,.2,.37,.31,.8,.34,1.31h-1.87c-.1-.48-.29-.83-.58-1.06-.29-.22-.65-.34-1.09-.34-.33,0-.63,.08-.92,.25-.29,.16-.52,.44-.71,.82-.19,.38-.28,.91-.28,1.58v.24c0,.53,.06,.97,.18,1.33,.12,.36,.26,.64,.44,.85s.38,.36,.61,.46c.22,.1,.45,.14,.68,.14,.46,0,.83-.12,1.12-.35,.29-.24,.47-.58,.54-1.04h1.87c-.04,.52-.15,.97-.34,1.34-.19,.37-.44,.67-.75,.91-.31,.23-.68,.4-1.1,.5-.42,.1-.87,.16-1.35,.16Z" style="fill: #fff;"/>
    <path d="M122.48,21.56l-3.18-8.4h1.94l2.21,6.24,2.09-6.24h1.8l-3.06,8.4h-1.8Z" style="fill: #fff;"/>
  </g>
</svg>