<?xml version="1.0" encoding="UTF-8"?>
<svg id="LinkedInSkinny" xmlns="http://www.w3.org/2000/svg" viewBox="0 0 207 31.82">
  <rect x=".02" y="-.52" width="207" height="32.34" style="fill: #069;"/>
  <g id="linkedin">
    <path id="path28" d="M23.6,24.52V11.94h-4.18v12.58h4.18Zm-2.09-14.29c1.46,0,2.37-.97,2.37-2.17-.03-1.23-.91-2.17-2.34-2.17s-2.37,.94-2.37,2.17,.91,2.17,2.31,2.17h.03Z" style="fill: #fff; fill-rule: evenodd;"/>
    <path id="path30" d="M25.92,24.52h4.18v-7.02c0-.38,.03-.75,.14-1.02,.3-.75,.99-1.53,2.14-1.53,1.51,0,2.12,1.15,2.12,2.84v6.73h4.18v-7.21c0-3.86-2.06-5.66-4.81-5.66-2.26,0-3.25,1.26-3.8,2.12h.03v-1.82h-4.18c.05,1.18,0,12.58,0,12.58h0Z" style="fill: #fff; fill-rule: evenodd;"/>
  </g>
  <g>
    <path d="M54.03,22.22c-.73,0-1.38-.14-1.95-.43-.57-.29-1.02-.75-1.34-1.37s-.49-1.45-.49-2.48v-.24c0-.74,.1-1.37,.29-1.9,.19-.53,.46-.96,.81-1.3,.35-.34,.75-.58,1.21-.74,.46-.16,.95-.23,1.48-.23,.48,0,.92,.06,1.33,.17s.77,.29,1.09,.52c.32,.24,.58,.54,.77,.91,.2,.37,.31,.8,.34,1.31h-1.87c-.1-.48-.29-.83-.58-1.06-.29-.22-.65-.34-1.09-.34-.33,0-.64,.08-.92,.25s-.52,.44-.71,.82c-.18,.38-.28,.91-.28,1.58v.24c0,.53,.06,.97,.17,1.33,.12,.36,.26,.64,.44,.85s.38,.36,.61,.46c.22,.1,.45,.14,.68,.14,.46,0,.83-.12,1.12-.35,.29-.24,.47-.58,.55-1.04h1.87c-.04,.52-.15,.97-.34,1.34-.19,.37-.44,.67-.75,.91-.31,.23-.68,.4-1.1,.5-.42,.1-.87,.16-1.35,.16Z" style="fill: #fff;"/>
    <path d="M61.64,22.22c-.58,0-1.12-.12-1.6-.35-.48-.24-.86-.6-1.15-1.09-.29-.49-.43-1.1-.43-1.82v-.24c0-.69,.14-1.27,.43-1.73,.29-.47,.67-.82,1.15-1.06,.48-.24,1.01-.35,1.6-.35s1.12,.12,1.6,.35c.48,.24,.86,.59,1.15,1.06s.43,1.05,.43,1.73v.24c0,.71-.14,1.31-.43,1.8-.29,.49-.67,.85-1.15,1.1-.48,.24-1.01,.37-1.6,.37Zm0-1.34c.3,0,.57-.07,.8-.22,.23-.14,.42-.36,.56-.64,.14-.28,.21-.64,.21-1.06v-.24c0-.39-.07-.72-.21-.98-.14-.26-.33-.47-.56-.61-.23-.14-.5-.21-.8-.21s-.56,.07-.8,.21c-.24,.14-.42,.34-.56,.61-.14,.26-.21,.59-.21,.98v.24c0,.43,.07,.79,.21,1.07,.14,.28,.33,.49,.56,.64,.24,.14,.5,.22,.8,.22Z" style="fill: #fff;"/>
    <path d="M65.96,22.08v-6.36h1.46v.94c.15-.29,.4-.54,.74-.76,.34-.22,.8-.32,1.39-.32,.77,0,1.34,.21,1.72,.62s.57,1.01,.57,1.81v4.08h-1.6v-3.72c0-.48-.1-.84-.29-1.08-.19-.24-.53-.36-1.01-.36-.33,0-.6,.07-.8,.2s-.36,.31-.46,.53c-.1,.22-.14,.46-.14,.71v3.72h-1.58Z" style="fill: #fff;"/>
    <path d="M73.22,22.08v-6.36h1.46v.94c.15-.29,.4-.54,.74-.76,.34-.22,.8-.32,1.39-.32,.77,0,1.34,.21,1.72,.62s.57,1.01,.57,1.81v4.08h-1.6v-3.72c0-.48-.1-.84-.29-1.08-.19-.24-.53-.36-1.01-.36-.33,0-.6,.07-.8,.2s-.36,.31-.46,.53c-.1,.22-.14,.46-.14,.71v3.72h-1.58Z" style="fill: #fff;"/>
    <path d="M83.36,22.22c-.58,0-1.11-.12-1.59-.35-.48-.24-.87-.6-1.16-1.08-.29-.48-.43-1.09-.43-1.83v-.24c0-.7,.14-1.29,.41-1.75,.28-.46,.64-.81,1.1-1.04,.46-.23,.97-.35,1.54-.35,1,0,1.76,.26,2.28,.79,.52,.53,.78,1.29,.78,2.29v.67h-4.5c.02,.38,.1,.68,.25,.92,.15,.24,.34,.41,.57,.52,.23,.11,.48,.16,.74,.16,.41,0,.72-.06,.92-.18,.21-.12,.36-.3,.44-.53h1.45c-.13,.66-.44,1.15-.95,1.49-.5,.34-1.13,.51-1.87,.51Zm-.06-5.35c-.25,0-.49,.04-.71,.13-.23,.08-.41,.23-.55,.43-.14,.2-.22,.47-.23,.8h2.95c0-.36-.08-.64-.2-.83-.13-.2-.3-.33-.52-.41-.22-.08-.46-.11-.73-.11Z" style="fill: #fff;"/>
    <path d="M90.26,22.22c-.58,0-1.1-.12-1.58-.37-.48-.24-.85-.61-1.13-1.09-.28-.48-.41-1.09-.41-1.81v-.24c0-.69,.14-1.26,.43-1.73,.29-.46,.67-.82,1.14-1.06,.47-.24,.99-.36,1.55-.36,.6,0,1.11,.1,1.53,.31s.74,.48,.97,.83c.22,.35,.35,.74,.38,1.17h-1.61c-.06-.3-.19-.53-.39-.7-.2-.17-.49-.26-.88-.26-.27,0-.52,.06-.75,.19-.23,.13-.41,.33-.55,.59-.14,.27-.21,.61-.21,1.01v.24c0,.45,.07,.81,.2,1.1,.13,.28,.31,.49,.54,.62,.23,.13,.49,.2,.77,.2,.31,0,.58-.08,.8-.25,.22-.16,.38-.4,.47-.71h1.61c-.05,.46-.2,.86-.46,1.21-.26,.35-.59,.62-1.01,.81-.42,.19-.89,.28-1.42,.28Z" style="fill: #fff;"/>
    <path d="M96.78,22.15c-.5,0-.9-.07-1.22-.21-.32-.14-.56-.37-.71-.68-.15-.31-.23-.72-.23-1.22v-3h-.84v-1.32h.84v-1.44h1.58v1.44h1.54v1.32h-1.54v2.76c0,.36,.07,.62,.2,.77s.38,.23,.74,.23c.24,0,.48-.01,.72-.04v1.32c-.15,.02-.31,.03-.47,.04-.16,.01-.37,.02-.61,.02Z" style="fill: #fff;"/>
    <path d="M104.88,22.22c-.58,0-1.12-.12-1.6-.35-.48-.24-.86-.6-1.15-1.09-.29-.49-.43-1.1-.43-1.82v-.24c0-.69,.14-1.27,.43-1.73,.29-.47,.67-.82,1.15-1.06,.48-.24,1.01-.35,1.6-.35s1.12,.12,1.6,.35c.48,.24,.86,.59,1.15,1.06s.43,1.05,.43,1.73v.24c0,.71-.14,1.31-.43,1.8-.29,.49-.67,.85-1.15,1.1-.48,.24-1.01,.37-1.6,.37Zm0-1.34c.3,0,.57-.07,.8-.22,.23-.14,.42-.36,.56-.64,.14-.28,.21-.64,.21-1.06v-.24c0-.39-.07-.72-.21-.98-.14-.26-.33-.47-.56-.61-.23-.14-.5-.21-.8-.21s-.56,.07-.8,.21c-.24,.14-.42,.34-.56,.61-.14,.26-.21,.59-.21,.98v.24c0,.43,.07,.79,.21,1.07,.14,.28,.33,.49,.56,.64,.24,.14,.5,.22,.8,.22Z" style="fill: #fff;"/>
    <path d="M109.2,22.08v-6.36h1.46v.94c.15-.29,.4-.54,.74-.76,.34-.22,.8-.32,1.39-.32,.77,0,1.34,.21,1.72,.62s.57,1.01,.57,1.81v4.08h-1.6v-3.72c0-.48-.1-.84-.29-1.08-.19-.24-.53-.36-1.01-.36-.33,0-.6,.07-.8,.2s-.36,.31-.46,.53c-.1,.22-.14,.46-.14,.71v3.72h-1.58Z" style="fill: #fff;"/>
    <path d="M119.7,22.08V13.68h1.8v6.9h3.84v1.5h-5.64Z" style="fill: #fff;"/>
    <path d="M127.22,15.12c-.28,0-.51-.09-.69-.27-.18-.18-.27-.41-.27-.69s.09-.51,.27-.69,.41-.27,.69-.27,.51,.09,.69,.27c.18,.18,.27,.41,.27,.69s-.09,.51-.27,.69-.41,.27-.69,.27Zm-.79,6.96v-6.36h1.58v6.36h-1.58Z" style="fill: #fff;"/>
    <path d="M129.56,22.08v-6.36h1.46v.94c.15-.29,.4-.54,.74-.76,.34-.22,.8-.32,1.39-.32,.77,0,1.34,.21,1.72,.62s.57,1.01,.57,1.81v4.08h-1.6v-3.72c0-.48-.1-.84-.29-1.08-.19-.24-.53-.36-1.01-.36-.33,0-.6,.07-.8,.2s-.36,.31-.46,.53c-.1,.22-.14,.46-.14,.71v3.72h-1.58Z" style="fill: #fff;"/>
    <path d="M136.82,22.08V13.68h1.58v4.66l2.35-2.62h1.82l-2.45,2.74,2.69,3.62h-1.85l-1.85-2.59-.72,.77v1.82h-1.58Z" style="fill: #fff;"/>
    <path d="M146.36,22.22c-.58,0-1.11-.12-1.59-.35-.48-.24-.87-.6-1.16-1.08-.29-.48-.43-1.09-.43-1.83v-.24c0-.7,.14-1.29,.41-1.75,.28-.46,.64-.81,1.1-1.04,.46-.23,.97-.35,1.54-.35,1,0,1.76,.26,2.28,.79,.52,.53,.78,1.29,.78,2.29v.67h-4.5c.02,.38,.1,.68,.25,.92,.15,.24,.34,.41,.57,.52,.23,.11,.48,.16,.74,.16,.41,0,.72-.06,.92-.18,.21-.12,.36-.3,.44-.53h1.45c-.13,.66-.44,1.15-.95,1.49-.5,.34-1.13,.51-1.87,.51Zm-.06-5.35c-.25,0-.49,.04-.71,.13-.23,.08-.41,.23-.55,.43-.14,.2-.22,.47-.23,.8h2.95c0-.36-.08-.64-.2-.83-.13-.2-.3-.33-.52-.41-.22-.08-.46-.11-.73-.11Z" style="fill: #fff;"/>
    <path d="M152.84,22.22c-.55,0-1.03-.12-1.43-.36-.4-.24-.72-.6-.94-1.09-.22-.48-.33-1.09-.33-1.82v-.24c0-.69,.11-1.26,.32-1.73s.53-.82,.94-1.06c.41-.24,.89-.36,1.42-.36,.44,0,.83,.09,1.16,.28,.33,.19,.6,.43,.81,.74v-2.92h1.58v8.4h-1.49v-.94c-.15,.3-.4,.55-.74,.76s-.78,.32-1.31,.32Zm.37-1.34c.32,0,.6-.06,.83-.18,.24-.12,.42-.31,.55-.56,.13-.25,.2-.57,.2-.94v-.72c0-.35-.07-.64-.2-.87-.14-.23-.33-.4-.57-.52-.24-.12-.51-.17-.81-.17-.43,0-.78,.15-1.06,.45-.27,.3-.41,.75-.41,1.35v.24c0,.65,.14,1.13,.42,1.45,.28,.32,.63,.47,1.04,.47Z" style="fill: #fff;"/>
    <path d="M158.18,22.08V13.68h1.8v8.4h-1.8Z" style="fill: #fff;"/>
    <path d="M161.77,22.08v-6.36h1.46v.94c.15-.29,.4-.54,.74-.76,.34-.22,.8-.32,1.39-.32,.77,0,1.34,.21,1.72,.62s.57,1.01,.57,1.81v4.08h-1.6v-3.72c0-.48-.1-.84-.29-1.08-.19-.24-.53-.36-1.01-.36-.33,0-.6,.07-.8,.2s-.36,.31-.46,.53c-.1,.22-.14,.46-.14,.71v3.72h-1.58Z" style="fill: #fff;"/>
  </g>
</svg>