<?xml version="1.0" encoding="UTF-8"?>
<svg id="LinkedIn" xmlns="http://www.w3.org/2000/svg" viewBox="0 0 207 48">
  <rect x="0" width="207" height="48" rx="12" ry="12" style="fill: #069;"/>
  <g id="linkedin">
    <path id="path28" d="M21.97,35.04v-14.9h-4.95v14.9h4.95Zm-2.48-16.93c1.73,0,2.8-1.14,2.8-2.57-.03-1.46-1.07-2.57-2.77-2.57s-2.8,1.11-2.8,2.57,1.07,2.57,2.74,2.57h.03Z" style="fill: #fff; fill-rule: evenodd;"/>
    <path id="path30" d="M24.71,35.04h4.95v-8.32c0-.45,.03-.89,.16-1.21,.36-.89,1.17-1.81,2.54-1.81,1.79,0,2.51,1.37,2.51,3.37v7.97h4.95v-8.54c0-4.58-2.44-6.71-5.7-6.71-2.67,0-3.84,1.49-4.5,2.51h.03v-2.16h-4.95c.06,1.4,0,14.9,0,14.9h0Z" style="fill: #fff; fill-rule: evenodd;"/>
  </g>
  <g>
    <path d="M93.68,29.16c-1.03,0-1.95-.2-2.76-.61-.81-.41-1.44-1.06-1.9-1.95s-.69-2.06-.69-3.51v-.34c0-1.04,.14-1.94,.41-2.69s.65-1.36,1.15-1.84c.49-.48,1.06-.82,1.71-1.05s1.34-.33,2.09-.33c.68,0,1.31,.08,1.89,.24,.58,.16,1.09,.41,1.55,.74,.45,.33,.82,.76,1.1,1.28,.28,.52,.44,1.14,.48,1.85h-2.65c-.14-.68-.41-1.18-.82-1.5-.41-.32-.93-.48-1.54-.48-.46,0-.9,.12-1.31,.35s-.74,.62-1,1.16c-.26,.54-.39,1.29-.39,2.24v.34c0,.75,.08,1.37,.25,1.88,.16,.5,.37,.9,.63,1.2,.25,.29,.54,.51,.86,.65s.64,.2,.97,.2c.65,0,1.18-.17,1.59-.5,.41-.33,.67-.82,.77-1.47h2.65c-.06,.74-.22,1.37-.48,1.9-.27,.53-.62,.96-1.06,1.28-.44,.33-.96,.57-1.56,.71-.6,.15-1.23,.22-1.91,.22Z" style="fill: #fff;"/>
    <path d="M104.12,29.16c-.83,0-1.58-.17-2.26-.5-.68-.33-1.22-.85-1.63-1.54s-.61-1.55-.61-2.58v-.34c0-.97,.2-1.79,.61-2.46,.41-.66,.95-1.16,1.63-1.5,.68-.33,1.43-.5,2.26-.5s1.58,.17,2.26,.5c.68,.33,1.22,.83,1.63,1.5,.41,.66,.61,1.48,.61,2.46v.34c0,1.01-.2,1.86-.61,2.55-.41,.69-.95,1.21-1.63,1.56-.68,.35-1.43,.52-2.26,.52Zm0-1.9c.43,0,.81-.1,1.14-.31,.33-.2,.59-.51,.79-.91s.3-.9,.3-1.5v-.34c0-.56-.1-1.02-.3-1.39s-.46-.66-.79-.86c-.33-.2-.71-.3-1.14-.3s-.8,.1-1.13,.3c-.33,.2-.6,.48-.8,.86s-.3,.84-.3,1.39v.34c0,.61,.1,1.12,.3,1.51,.2,.4,.46,.7,.8,.9,.33,.2,.71,.31,1.13,.31Z" style="fill: #fff;"/>
    <path d="M109.9,28.96v-9.01h2.07v1.33c.21-.41,.56-.77,1.04-1.07,.48-.31,1.14-.46,1.96-.46,1.09,0,1.9,.29,2.44,.88,.54,.58,.81,1.44,.81,2.56v5.78h-2.26v-5.27c0-.68-.14-1.19-.41-1.53-.27-.34-.75-.51-1.43-.51-.46,0-.84,.09-1.14,.28s-.51,.44-.65,.75c-.14,.31-.2,.65-.2,1.01v5.27h-2.24Z" style="fill: #fff;"/>
    <path d="M119.84,28.96v-9.01h2.07v1.33c.22-.41,.56-.77,1.05-1.07,.48-.31,1.14-.46,1.96-.46,1.09,0,1.9,.29,2.44,.88,.54,.58,.81,1.44,.81,2.56v5.78h-2.26v-5.27c0-.68-.14-1.19-.41-1.53-.27-.34-.75-.51-1.43-.51-.46,0-.84,.09-1.14,.28-.29,.19-.51,.44-.65,.75-.14,.31-.2,.65-.2,1.01v5.27h-2.24Z" style="fill: #fff;"/>
    <path d="M133.87,29.16c-.82,0-1.57-.17-2.25-.5-.69-.33-1.23-.84-1.64-1.53s-.61-1.55-.61-2.59v-.34c0-1,.2-1.82,.59-2.48,.39-.66,.91-1.15,1.56-1.48,.65-.33,1.38-.49,2.18-.49,1.42,0,2.49,.37,3.23,1.12,.74,.75,1.1,1.83,1.1,3.25v.95h-6.38c.02,.53,.14,.97,.35,1.3,.21,.33,.48,.58,.81,.73s.68,.23,1.05,.23c.58,0,1.01-.08,1.31-.25,.29-.17,.5-.42,.63-.75h2.06c-.18,.93-.63,1.63-1.34,2.12-.71,.48-1.6,.72-2.65,.72Zm-.08-7.58c-.35,0-.69,.06-1.01,.18-.32,.12-.58,.32-.78,.6-.2,.28-.31,.66-.33,1.14h4.18c-.01-.51-.11-.9-.29-1.18-.18-.28-.42-.47-.73-.58-.31-.11-.65-.16-1.04-.16Z" style="fill: #fff;"/>
    <path d="M143.3,29.16c-.82,0-1.56-.17-2.24-.52-.67-.35-1.21-.86-1.6-1.55-.39-.69-.59-1.54-.59-2.56v-.34c0-.97,.2-1.79,.61-2.45s.95-1.16,1.62-1.5c.67-.34,1.4-.51,2.19-.51,.85,0,1.57,.14,2.17,.43,.59,.29,1.05,.68,1.37,1.17s.5,1.05,.54,1.66h-2.28c-.09-.42-.28-.75-.55-.99-.28-.24-.69-.37-1.25-.37-.38,0-.74,.09-1.06,.27-.32,.18-.58,.46-.78,.84-.2,.38-.3,.86-.3,1.44v.34c0,.63,.09,1.15,.28,1.56,.19,.4,.44,.7,.77,.88,.32,.19,.69,.28,1.1,.28,.44,0,.82-.12,1.14-.35,.32-.23,.54-.57,.66-1.01h2.28c-.07,.65-.28,1.22-.65,1.72-.36,.5-.84,.88-1.43,1.15-.59,.27-1.26,.4-2.01,.4Z" style="fill: #fff;"/>
    <path d="M152.21,29.06c-.7,0-1.28-.1-1.73-.3-.45-.2-.79-.52-1-.96-.22-.44-.32-1.02-.32-1.73v-4.25h-1.19v-1.87h1.19v-2.04h2.24v2.04h2.18v1.87h-2.18v3.91c0,.51,.09,.88,.28,1.1,.19,.22,.54,.33,1.04,.33,.34,0,.68-.02,1.02-.05v1.87c-.22,.02-.44,.04-.67,.06-.23,.02-.52,.03-.86,.03Z" style="fill: #fff;"/>
    <path d="M159.27,28.96v-11.9h2.43l5.22,7.65v-7.65h2.55v11.9h-2.43l-5.22-7.65v7.65h-2.55Z" style="fill: #fff;"/>
    <path d="M175.58,29.16c-.83,0-1.58-.17-2.26-.5-.68-.33-1.22-.85-1.63-1.54s-.61-1.55-.61-2.58v-.34c0-.97,.2-1.79,.61-2.46,.41-.66,.95-1.16,1.63-1.5s1.43-.5,2.26-.5,1.58,.17,2.26,.5c.68,.33,1.22,.83,1.63,1.5,.41,.66,.61,1.48,.61,2.46v.34c0,1.01-.2,1.86-.61,2.55-.41,.69-.95,1.21-1.63,1.56-.68,.35-1.43,.52-2.26,.52Zm0-1.9c.43,0,.81-.1,1.14-.31,.33-.2,.59-.51,.79-.91s.3-.9,.3-1.5v-.34c0-.56-.1-1.02-.3-1.39s-.46-.66-.79-.86c-.33-.2-.71-.3-1.14-.3s-.8,.1-1.13,.3c-.33,.2-.6,.48-.8,.86-.2,.37-.3,.84-.3,1.39v.34c0,.61,.1,1.12,.3,1.51,.2,.4,.46,.7,.8,.9,.33,.2,.71,.31,1.13,.31Z" style="fill: #fff;"/>
    <path d="M183.03,28.96l-2.52-9.01h2.41l1.46,5.95,1.82-5.95h2.07l1.9,5.95,1.55-5.95h2.21l-2.52,9.01h-2.26l-1.96-6.29-1.92,6.29h-2.26Z" style="fill: #fff;"/>
  </g>
</svg>