<?xml version="1.0" encoding="UTF-8"?>
<svg id="WhatsApp" xmlns="http://www.w3.org/2000/svg" xmlns:xlink="http://www.w3.org/1999/xlink" viewBox="0 0 207 48">
  <defs>
    <clipPath id="clippath">
      <rect x="16.28" y="11.5" width="24" height="24" style="fill: none;"/>
    </clipPath>
  </defs>
  <rect x="0" width="207" height="48" rx="12" ry="12" style="fill: #25d366;"/>
  <g style="clip-path: url(#clippath);">
    <path d="M28.03,12.45c2.9,.01,5.7,1.15,7.8,3.16,2.15,2.06,3.38,4.82,3.49,7.79,.11,2.9-.91,5.75-2.83,7.93-2.11,2.39-5.04,3.76-8.2,3.85-.11,0-.22,0-.33,0-1.71,0-3.39-.38-4.93-1.12l-5.95,1.32s-.09-.02-.1-.07c0,0,0-.02,0-.03l1-6.01c-.86-1.57-1.34-3.33-1.39-5.13-.09-3.03,1.01-5.92,3.1-8.13,2.16-2.29,5.11-3.56,8.27-3.56,0,0,.06,0,.06,0Zm-.06,1.97c-.09,0-.18,0-.27,0-5.18,.15-9.27,4.48-9.12,9.66,.05,1.58,.49,3.13,1.29,4.49l.17,.29-.74,4.08,4.04-.95,.31,.16c1.33,.69,2.82,1.06,4.33,1.06,.09,0,.18,0,.27,0,5.18-.15,9.27-4.48,9.12-9.66-.15-5.09-4.33-9.12-9.38-9.12Zm-3.93,3.9c.19,0,.38,.01,.55,.02,.2,.01,.43,.03,.63,.51,.24,.57,.75,2,.81,2.15s.11,.31,0,.5c-.1,.19-.15,.3-.3,.47-.15,.16-.31,.36-.44,.49-.15,.14-.3,.29-.14,.58,.16,.29,.7,1.24,1.53,2.02,1.06,1.01,1.91,1.34,2.25,1.49,.12,.06,.22,.08,.31,.08,.12,0,.22-.05,.31-.14,.18-.18,.71-.8,.94-1.09,.12-.15,.22-.2,.34-.2,.09,0,.19,.03,.31,.08,.26,.1,1.64,.84,1.92,.99,.28,.15,.47,.23,.54,.35,.07,.12,.05,.69-.21,1.35-.26,.66-1.44,1.27-1.97,1.3-.15,0-.3,.03-.5,.03-.48,0-1.22-.13-2.9-.85-2.86-1.23-4.6-4.26-4.74-4.46-.14-.19-1.12-1.58-1.07-2.99,.04-1.4,.8-2.07,1.07-2.35,.26-.27,.56-.33,.75-.33h.02Z" style="fill: #fff; fill-rule: evenodd;"/>
  </g>
  <g>
    <path d="M52.66,29.14c-1.03,0-1.95-.2-2.76-.61-.81-.41-1.44-1.06-1.9-1.95s-.69-2.06-.69-3.51v-.34c0-1.04,.14-1.94,.41-2.69s.65-1.36,1.15-1.84c.49-.48,1.06-.82,1.71-1.04,.65-.22,1.34-.33,2.09-.33,.68,0,1.31,.08,1.89,.24,.58,.16,1.09,.41,1.55,.74,.45,.33,.82,.76,1.1,1.28,.28,.52,.44,1.14,.48,1.85h-2.65c-.14-.68-.41-1.18-.82-1.5-.41-.32-.93-.48-1.54-.48-.46,0-.9,.12-1.31,.35s-.74,.62-1,1.16-.39,1.29-.39,2.24v.34c0,.75,.08,1.37,.25,1.88,.16,.5,.37,.9,.63,1.2s.54,.51,.86,.65c.32,.14,.64,.2,.97,.2,.65,0,1.18-.17,1.59-.5s.67-.83,.77-1.47h2.65c-.06,.74-.22,1.37-.48,1.9s-.62,.96-1.06,1.28c-.44,.33-.96,.57-1.56,.71-.6,.15-1.23,.22-1.91,.22Z" style="fill: #fff;"/>
    <path d="M59.02,28.94v-11.9h2.24v4.13c.14-.23,.33-.45,.57-.67,.24-.22,.55-.41,.92-.55s.82-.22,1.35-.22c1.09,0,1.9,.29,2.44,.88,.54,.58,.81,1.44,.81,2.56v5.78h-2.26v-5.25c0-.68-.14-1.19-.41-1.54s-.75-.52-1.43-.52c-.46,0-.84,.09-1.14,.28-.29,.19-.51,.44-.65,.76-.14,.32-.2,.66-.2,1.02v5.25h-2.24Z" style="fill: #fff;"/>
    <path d="M71.65,29.14c-.63,0-1.18-.12-1.63-.37-.45-.24-.8-.58-1.04-1.01-.24-.43-.36-.92-.36-1.46,0-.91,.27-1.59,.81-2.04,.54-.45,1.35-.68,2.42-.68h2.69v-.42c0-.59-.13-1-.4-1.24-.27-.24-.69-.36-1.27-.36-.51,0-.88,.09-1.1,.26-.23,.18-.35,.39-.37,.65h-2.26c.03-.51,.2-.97,.5-1.39,.3-.42,.73-.75,1.29-.99s1.24-.37,2.03-.37,1.44,.11,2.01,.34,1.02,.59,1.33,1.1c.32,.51,.48,1.18,.48,2.02v3.45c0,.48,0,.89,.03,1.25,.02,.36,.05,.71,.09,1.05h-2.09c-.05-.25-.07-.44-.08-.57,0-.13,0-.33,0-.59-.25,.37-.63,.69-1.13,.96-.5,.27-1.15,.4-1.95,.4Zm.71-1.73c.36,0,.71-.07,1.05-.2s.61-.33,.82-.61c.21-.28,.31-.63,.31-1.06v-.42h-2.26c-.43,0-.77,.1-1.01,.3-.24,.2-.37,.47-.37,.81,0,.36,.12,.65,.37,.87,.25,.22,.61,.32,1.09,.32Z" style="fill: #fff;"/>
    <path d="M82.05,29.04c-.7,0-1.28-.1-1.73-.3-.45-.2-.79-.52-1-.96-.22-.44-.32-1.02-.32-1.73v-4.25h-1.19v-1.87h1.19v-2.04h2.24v2.04h2.18v1.87h-2.18v3.91c0,.51,.09,.88,.28,1.1,.19,.22,.54,.33,1.04,.33,.34,0,.68-.02,1.02-.05v1.87c-.22,.02-.44,.04-.67,.06s-.52,.03-.86,.03Z" style="fill: #fff;"/>
    <path d="M92.85,29.14c-.83,0-1.58-.17-2.26-.5s-1.22-.85-1.63-1.54-.61-1.55-.61-2.58v-.34c0-.97,.2-1.79,.61-2.46s.95-1.16,1.63-1.5c.68-.33,1.43-.5,2.26-.5s1.58,.17,2.26,.5c.68,.33,1.22,.83,1.63,1.5s.61,1.48,.61,2.46v.34c0,1.01-.2,1.86-.61,2.55s-.95,1.21-1.63,1.56c-.68,.35-1.43,.52-2.26,.52Zm0-1.9c.43,0,.81-.1,1.14-.31,.33-.2,.59-.51,.79-.91s.3-.9,.3-1.5v-.34c0-.56-.1-1.02-.3-1.39s-.46-.66-.79-.86c-.33-.2-.71-.3-1.14-.3s-.8,.1-1.13,.3c-.33,.2-.6,.48-.8,.86-.2,.37-.3,.84-.3,1.39v.34c0,.61,.1,1.12,.3,1.51,.2,.4,.46,.7,.8,.9,.33,.2,.71,.31,1.13,.31Z" style="fill: #fff;"/>
    <path d="M98.63,28.94v-9.01h2.07v1.33c.22-.41,.56-.76,1.05-1.07,.48-.31,1.14-.46,1.96-.46,1.09,0,1.9,.29,2.44,.88,.54,.58,.81,1.44,.81,2.56v5.78h-2.26v-5.27c0-.68-.14-1.19-.41-1.53-.27-.34-.75-.51-1.43-.51-.46,0-.84,.09-1.14,.28-.29,.19-.51,.44-.65,.75-.14,.31-.2,.65-.2,1.01v5.27h-2.24Z" style="fill: #fff;"/>
    <path d="M114.86,28.94l-3.06-11.9h2.65l1.85,8.38,2.29-8.38h2.38l2.35,8.42,2.01-8.42h2.45l-3.06,11.9h-2.55l-2.46-8.48-2.29,8.48h-2.55Z" style="fill: #fff;"/>
    <path d="M128.78,28.94v-11.9h2.24v4.13c.14-.23,.33-.45,.57-.67,.24-.22,.55-.41,.92-.55,.37-.15,.82-.22,1.35-.22,1.09,0,1.9,.29,2.44,.88,.54,.58,.81,1.44,.81,2.56v5.78h-2.26v-5.25c0-.68-.14-1.19-.41-1.54-.27-.35-.75-.52-1.43-.52-.46,0-.84,.09-1.14,.28-.29,.19-.51,.44-.65,.76s-.2,.66-.2,1.02v5.25h-2.24Z" style="fill: #fff;"/>
    <path d="M141.42,29.14c-.63,0-1.18-.12-1.63-.37-.45-.24-.8-.58-1.04-1.01s-.36-.92-.36-1.46c0-.91,.27-1.59,.81-2.04s1.35-.68,2.42-.68h2.69v-.42c0-.59-.13-1-.4-1.24-.27-.24-.69-.36-1.27-.36-.51,0-.88,.09-1.1,.26s-.35,.39-.37,.65h-2.26c.03-.51,.2-.97,.5-1.39,.3-.42,.73-.75,1.29-.99,.56-.24,1.24-.37,2.03-.37s1.44,.11,2.01,.34,1.02,.59,1.33,1.1c.32,.51,.48,1.18,.48,2.02v3.45c0,.48,0,.89,.03,1.25,.02,.36,.05,.71,.09,1.05h-2.09c-.05-.25-.07-.44-.08-.57,0-.13,0-.33,0-.59-.25,.37-.63,.69-1.13,.96-.5,.27-1.15,.4-1.95,.4Zm.71-1.73c.36,0,.71-.07,1.05-.2,.33-.13,.61-.33,.82-.61,.21-.28,.31-.63,.31-1.06v-.42h-2.26c-.43,0-.77,.1-1.01,.3-.24,.2-.37,.47-.37,.81,0,.36,.12,.65,.37,.87,.25,.22,.61,.32,1.09,.32Z" style="fill: #fff;"/>
    <path d="M151.82,29.04c-.7,0-1.28-.1-1.73-.3-.45-.2-.79-.52-1-.96-.22-.44-.32-1.02-.32-1.73v-4.25h-1.19v-1.87h1.19v-2.04h2.24v2.04h2.18v1.87h-2.18v3.91c0,.51,.09,.88,.28,1.1,.19,.22,.54,.33,1.04,.33,.34,0,.68-.02,1.02-.05v1.87c-.22,.02-.44,.04-.67,.06s-.52,.03-.86,.03Z" style="fill: #fff;"/>
    <path d="M158.28,29.14c-.74,0-1.36-.08-1.86-.23-.5-.15-.92-.36-1.23-.63-.32-.27-.55-.57-.71-.91-.15-.34-.25-.7-.28-1.07h2.24c.06,.29,.24,.54,.54,.72,.3,.19,.73,.28,1.3,.28,.66,0,1.13-.09,1.41-.27,.28-.18,.42-.41,.42-.7,0-.2-.06-.37-.19-.5-.12-.13-.35-.24-.66-.34-.32-.1-.76-.19-1.34-.28-.49-.07-.94-.16-1.37-.28s-.79-.29-1.1-.5c-.31-.22-.56-.49-.73-.82-.18-.33-.26-.73-.26-1.19s.15-.94,.45-1.35c.3-.41,.74-.74,1.31-.99s1.26-.37,2.07-.37c.87,0,1.57,.14,2.1,.41,.53,.27,.92,.62,1.18,1.05s.41,.89,.46,1.38h-2.24c-.09-.33-.27-.58-.53-.75s-.58-.25-.97-.25c-.57,0-.97,.09-1.21,.26-.24,.18-.37,.39-.37,.65s.13,.48,.4,.63c.27,.15,.81,.27,1.64,.37,.51,.07,.98,.17,1.42,.31,.44,.14,.82,.31,1.15,.53,.33,.21,.59,.48,.77,.81,.19,.32,.28,.72,.28,1.18,0,.54-.15,1.03-.45,1.46-.3,.43-.75,.77-1.36,1.01-.61,.24-1.36,.37-2.27,.37Z" style="fill: #fff;"/>
    <path d="M162.77,28.94l4.42-11.9h2.55l4.42,11.9h-2.69l-.92-2.43h-4.4l-.9,2.43h-2.48Zm4.17-4.56h2.86l-1.43-4.1-1.43,4.1Z" style="fill: #fff;"/>
    <path d="M174.99,32.34v-12.41h2.11v1.33c.21-.41,.57-.76,1.05-1.07,.49-.31,1.11-.46,1.85-.46,1.2,0,2.14,.37,2.81,1.1,.67,.74,1.01,1.85,1.01,3.35v.34c0,1.03-.16,1.89-.47,2.58s-.75,1.2-1.32,1.54c-.57,.34-1.25,.51-2.04,.51-.61,0-1.15-.13-1.62-.4-.47-.27-.85-.62-1.15-1.05v4.64h-2.24Zm4.49-5.1c.59,0,1.08-.22,1.48-.67,.4-.45,.59-1.13,.59-2.05v-.34c0-.85-.19-1.49-.58-1.91-.39-.42-.88-.64-1.5-.64-.42,0-.8,.08-1.15,.25s-.62,.41-.81,.74c-.19,.33-.29,.74-.29,1.22v1.02c0,.53,.09,.98,.28,1.33,.19,.36,.45,.62,.79,.79s.73,.25,1.17,.25Z" style="fill: #fff;"/>
    <path d="M185.1,32.34v-12.41h2.11v1.33c.21-.41,.57-.76,1.05-1.07,.49-.31,1.11-.46,1.85-.46,1.2,0,2.14,.37,2.81,1.1,.67,.74,1.01,1.85,1.01,3.35v.34c0,1.03-.16,1.89-.47,2.58s-.75,1.2-1.32,1.54c-.57,.34-1.25,.51-2.04,.51-.61,0-1.15-.13-1.62-.4-.47-.27-.85-.62-1.15-1.05v4.64h-2.24Zm4.49-5.1c.59,0,1.08-.22,1.48-.67,.4-.45,.59-1.13,.59-2.05v-.34c0-.85-.19-1.49-.58-1.91-.39-.42-.88-.64-1.5-.64-.42,0-.8,.08-1.15,.25s-.62,.41-.81,.74c-.19,.33-.29,.74-.29,1.22v1.02c0,.53,.09,.98,.28,1.33,.19,.36,.45,.62,.79,.79s.73,.25,1.17,.25Z" style="fill: #fff;"/>
  </g>
</svg>