<?xml version="1.0" encoding="UTF-8"?>
<svg id="WhatsAppSkinny" xmlns="http://www.w3.org/2000/svg" xmlns:xlink="http://www.w3.org/1999/xlink" viewBox="0 0 207 32.34">
  <defs>
    <clipPath id="clippath">
      <rect x="19.11" y="6.68" width="19.64" height="19.64" style="fill: none;"/>
    </clipPath>
  </defs>
  <rect width="207" height="32.34" style="fill: #25d366;"/>
  <g style="clip-path: url(#clippath);">
    <path d="M28.72,7.45c2.38,.01,4.67,.94,6.38,2.59,1.76,1.68,2.77,3.94,2.86,6.37,.09,2.37-.74,4.71-2.31,6.49-1.72,1.95-4.12,3.08-6.71,3.15-.09,0-.18,0-.27,0-1.4,0-2.78-.31-4.03-.92l-4.87,1.08s-.08-.02-.08-.06c0,0,0-.02,0-.02l.82-4.92c-.7-1.28-1.09-2.73-1.14-4.2-.07-2.48,.83-4.85,2.53-6.65,1.77-1.87,4.18-2.92,6.77-2.92,0,0,.05,0,.05,0Zm-.05,1.61c-.07,0-.15,0-.22,0-4.24,.12-7.58,3.67-7.46,7.9,.04,1.29,.4,2.56,1.05,3.67l.14,.24-.61,3.34,3.31-.78,.25,.13c1.09,.57,2.31,.86,3.54,.86,.07,0,.15,0,.22,0,4.24-.12,7.58-3.67,7.46-7.9-.12-4.16-3.54-7.47-7.68-7.47Zm-3.22,3.19c.16,0,.31,0,.45,.02,.17,.01,.35,.03,.51,.42,.19,.47,.61,1.64,.67,1.76s.09,.26,0,.41c-.08,.15-.12,.25-.25,.38-.12,.13-.25,.3-.36,.4-.12,.11-.25,.24-.12,.47,.13,.24,.57,1.02,1.25,1.66,.87,.82,1.56,1.09,1.84,1.22,.1,.05,.18,.07,.25,.07,.1,0,.18-.04,.25-.12,.15-.15,.58-.66,.77-.89,.1-.12,.18-.17,.28-.17,.08,0,.16,.03,.25,.07,.21,.08,1.34,.68,1.57,.81,.23,.12,.38,.19,.44,.29,.06,.1,.04,.57-.17,1.11-.21,.54-1.18,1.04-1.61,1.06-.13,0-.25,.03-.41,.03-.39,0-1-.1-2.37-.7-2.34-1.01-3.77-3.49-3.88-3.65-.11-.16-.91-1.3-.88-2.44,.04-1.15,.66-1.7,.88-1.92,.21-.22,.45-.27,.61-.27h.02Z" style="fill: #fff; fill-rule: evenodd;"/>
  </g>
  <g>
    <path d="M54.03,21.65c-.73,0-1.38-.14-1.95-.43-.57-.29-1.02-.75-1.34-1.37s-.49-1.45-.49-2.48v-.24c0-.74,.1-1.37,.29-1.9,.19-.53,.46-.96,.81-1.3,.35-.34,.75-.58,1.21-.74,.46-.16,.95-.23,1.48-.23,.48,0,.92,.06,1.33,.17s.77,.29,1.09,.52c.32,.24,.58,.54,.77,.91,.2,.37,.31,.8,.34,1.31h-1.87c-.1-.48-.29-.83-.58-1.06-.29-.22-.65-.34-1.09-.34-.33,0-.64,.08-.92,.25s-.52,.44-.71,.82c-.18,.38-.28,.91-.28,1.58v.24c0,.53,.06,.97,.17,1.33,.12,.36,.26,.64,.44,.85s.38,.36,.61,.46c.22,.1,.45,.14,.68,.14,.46,0,.83-.12,1.12-.35,.29-.24,.47-.58,.55-1.04h1.87c-.04,.52-.15,.97-.34,1.34-.19,.37-.44,.67-.75,.91-.31,.23-.68,.4-1.1,.5-.42,.1-.87,.16-1.35,.16Z" style="fill: #fff;"/>
    <path d="M58.76,21.51V13.11h1.58v2.92c.1-.16,.23-.32,.4-.47s.39-.29,.65-.39c.26-.1,.58-.16,.95-.16,.77,0,1.34,.21,1.72,.62s.57,1.01,.57,1.81v4.08h-1.6v-3.71c0-.48-.1-.84-.29-1.09-.19-.24-.53-.37-1.01-.37-.33,0-.6,.07-.8,.2s-.36,.31-.46,.53c-.1,.22-.14,.46-.14,.72v3.71h-1.58Z" style="fill: #fff;"/>
    <path d="M67.91,21.65c-.45,0-.83-.09-1.15-.26s-.56-.41-.73-.71c-.17-.3-.25-.65-.25-1.03,0-.64,.19-1.12,.57-1.44s.95-.48,1.71-.48h1.9v-.3c0-.42-.09-.71-.28-.88-.19-.17-.49-.25-.89-.25-.36,0-.62,.06-.78,.19-.16,.12-.25,.28-.26,.46h-1.6c.02-.36,.14-.69,.35-.98s.52-.53,.91-.7c.4-.17,.87-.26,1.43-.26s1.02,.08,1.42,.24,.72,.42,.94,.78c.22,.36,.34,.84,.34,1.43v2.44c0,.34,0,.63,.02,.88s.03,.5,.07,.74h-1.48c-.03-.18-.05-.31-.05-.4,0-.09,0-.23,0-.41-.18,.26-.44,.49-.8,.68-.36,.19-.81,.28-1.37,.28Zm.5-1.22c.26,0,.5-.05,.74-.14,.24-.09,.43-.24,.58-.43,.15-.2,.22-.45,.22-.75v-.3h-1.6c-.3,0-.54,.07-.71,.21-.17,.14-.26,.33-.26,.57,0,.26,.09,.46,.26,.61,.18,.15,.43,.23,.77,.23Z" style="fill: #fff;"/>
    <path d="M75.5,21.58c-.5,0-.9-.07-1.22-.21-.32-.14-.56-.37-.71-.68-.15-.31-.23-.72-.23-1.22v-3h-.84v-1.32h.84v-1.44h1.58v1.44h1.54v1.32h-1.54v2.76c0,.36,.07,.62,.2,.77s.38,.23,.74,.23c.24,0,.48-.01,.72-.04v1.32c-.15,.02-.31,.03-.47,.04-.16,.01-.37,.02-.61,.02Z" style="fill: #fff;"/>
    <path d="M83.6,21.65c-.58,0-1.12-.12-1.6-.35-.48-.24-.86-.6-1.15-1.09-.29-.49-.43-1.1-.43-1.82v-.24c0-.69,.14-1.27,.43-1.73,.29-.47,.67-.82,1.15-1.06,.48-.24,1.01-.35,1.6-.35s1.12,.12,1.6,.35c.48,.24,.86,.59,1.15,1.06s.43,1.05,.43,1.73v.24c0,.71-.14,1.31-.43,1.8-.29,.49-.67,.85-1.15,1.1-.48,.24-1.01,.37-1.6,.37Zm0-1.34c.3,0,.57-.07,.8-.22,.23-.14,.42-.36,.56-.64,.14-.28,.21-.64,.21-1.06v-.24c0-.39-.07-.72-.21-.98-.14-.26-.33-.47-.56-.61-.23-.14-.5-.21-.8-.21s-.56,.07-.8,.21c-.24,.14-.42,.34-.56,.61-.14,.26-.21,.59-.21,.98v.24c0,.43,.07,.79,.21,1.07,.14,.28,.33,.49,.56,.64,.24,.14,.5,.22,.8,.22Z" style="fill: #fff;"/>
    <path d="M87.92,21.51v-6.36h1.46v.94c.15-.29,.4-.54,.74-.76,.34-.22,.8-.32,1.39-.32,.77,0,1.34,.21,1.72,.62s.57,1.01,.57,1.81v4.08h-1.6v-3.72c0-.48-.1-.84-.29-1.08-.19-.24-.53-.36-1.01-.36-.33,0-.6,.07-.8,.2s-.36,.31-.46,.53c-.1,.22-.14,.46-.14,.71v3.72h-1.58Z" style="fill: #fff;"/>
    <path d="M99.86,21.51l-2.16-8.4h1.87l1.31,5.92,1.62-5.92h1.68l1.66,5.94,1.42-5.94h1.73l-2.16,8.4h-1.8l-1.74-5.99-1.62,5.99h-1.8Z" style="fill: #fff;"/>
    <path d="M109.92,21.51V13.11h1.58v2.92c.1-.16,.23-.32,.4-.47s.39-.29,.65-.39c.26-.1,.58-.16,.95-.16,.77,0,1.34,.21,1.72,.62s.57,1.01,.57,1.81v4.08h-1.6v-3.71c0-.48-.1-.84-.29-1.09-.19-.24-.53-.37-1.01-.37-.33,0-.6,.07-.8,.2s-.36,.31-.46,.53c-.1,.22-.14,.46-.14,.72v3.71h-1.58Z" style="fill: #fff;"/>
    <path d="M119.08,21.65c-.45,0-.83-.09-1.15-.26s-.56-.41-.73-.71c-.17-.3-.25-.65-.25-1.03,0-.64,.19-1.12,.57-1.44s.95-.48,1.71-.48h1.9v-.3c0-.42-.09-.71-.28-.88-.19-.17-.49-.25-.89-.25-.36,0-.62,.06-.78,.19-.16,.12-.25,.28-.26,.46h-1.6c.02-.36,.14-.69,.35-.98s.52-.53,.91-.7c.4-.17,.87-.26,1.43-.26s1.02,.08,1.42,.24,.72,.42,.94,.78c.22,.36,.34,.84,.34,1.43v2.44c0,.34,0,.63,.02,.88s.03,.5,.07,.74h-1.48c-.03-.18-.05-.31-.05-.4,0-.09,0-.23,0-.41-.18,.26-.44,.49-.8,.68-.36,.19-.81,.28-1.37,.28Zm.5-1.22c.26,0,.5-.05,.74-.14,.24-.09,.43-.24,.58-.43,.15-.2,.22-.45,.22-.75v-.3h-1.6c-.3,0-.54,.07-.71,.21-.17,.14-.26,.33-.26,.57,0,.26,.09,.46,.26,.61,.18,.15,.43,.23,.77,.23Z" style="fill: #fff;"/>
    <path d="M126.66,21.58c-.5,0-.9-.07-1.22-.21-.32-.14-.56-.37-.71-.68-.15-.31-.23-.72-.23-1.22v-3h-.84v-1.32h.84v-1.44h1.58v1.44h1.54v1.32h-1.54v2.76c0,.36,.07,.62,.2,.77s.38,.23,.74,.23c.24,0,.48-.01,.72-.04v1.32c-.15,.02-.31,.03-.47,.04-.16,.01-.37,.02-.61,.02Z" style="fill: #fff;"/>
    <path d="M131.46,21.65c-.52,0-.96-.05-1.31-.16-.36-.11-.65-.26-.87-.44-.22-.19-.39-.4-.5-.64-.11-.24-.17-.49-.2-.76h1.58c.04,.21,.17,.38,.38,.51,.21,.13,.52,.2,.92,.2,.46,0,.8-.06,1-.19s.3-.29,.3-.49c0-.14-.04-.26-.13-.35-.09-.09-.24-.17-.47-.24-.22-.07-.54-.13-.95-.2-.34-.05-.67-.11-.97-.2s-.56-.2-.78-.35c-.22-.15-.39-.34-.52-.58s-.19-.51-.19-.84,.11-.66,.32-.95,.52-.52,.92-.7,.89-.26,1.46-.26c.62,0,1.11,.1,1.48,.29,.37,.19,.65,.44,.83,.74,.18,.3,.29,.63,.32,.97h-1.58c-.06-.23-.19-.41-.37-.53-.18-.12-.41-.18-.68-.18-.4,0-.69,.06-.86,.19-.17,.12-.26,.28-.26,.46s.09,.34,.28,.44c.19,.1,.57,.19,1.16,.26,.36,.05,.69,.12,1,.22,.31,.1,.58,.22,.81,.37,.23,.15,.41,.34,.55,.57,.13,.23,.2,.51,.2,.83,0,.38-.11,.73-.32,1.03-.21,.3-.53,.54-.96,.71-.43,.17-.96,.26-1.6,.26Z" style="fill: #fff;"/>
    <path d="M134.87,21.51l3.12-8.4h1.8l3.12,8.4h-1.9l-.65-1.72h-3.11l-.64,1.72h-1.75Zm2.94-3.22h2.02l-1.01-2.89-1.01,2.89Z" style="fill: #fff;"/>
    <path d="M143.74,23.91V15.15h1.49v.94c.15-.29,.4-.54,.74-.76,.34-.22,.78-.32,1.31-.32,.85,0,1.51,.26,1.99,.78,.48,.52,.71,1.31,.71,2.36v.24c0,.73-.11,1.33-.33,1.82-.22,.48-.53,.85-.93,1.09-.4,.24-.88,.36-1.44,.36-.43,0-.81-.09-1.15-.28-.33-.19-.6-.43-.81-.74v3.28h-1.58Zm3.17-3.6c.42,0,.76-.16,1.04-.47,.28-.32,.42-.8,.42-1.45v-.24c0-.6-.14-1.05-.41-1.35-.27-.3-.62-.45-1.06-.45-.3,0-.57,.06-.81,.17-.24,.12-.43,.29-.57,.52s-.2,.52-.2,.86v.72c0,.38,.07,.69,.2,.94,.13,.25,.32,.44,.56,.56,.24,.12,.52,.18,.83,.18Z" style="fill: #fff;"/>
    <path d="M151.12,23.91V15.15h1.49v.94c.15-.29,.4-.54,.74-.76,.34-.22,.78-.32,1.31-.32,.85,0,1.51,.26,1.99,.78,.48,.52,.71,1.31,.71,2.36v.24c0,.73-.11,1.33-.33,1.82-.22,.48-.53,.85-.93,1.09-.4,.24-.88,.36-1.44,.36-.43,0-.81-.09-1.15-.28-.33-.19-.6-.43-.81-.74v3.28h-1.58Zm3.17-3.6c.42,0,.76-.16,1.04-.47,.28-.32,.42-.8,.42-1.45v-.24c0-.6-.14-1.05-.41-1.35-.27-.3-.62-.45-1.06-.45-.3,0-.57,.06-.81,.17-.24,.12-.43,.29-.57,.52s-.2,.52-.2,.86v.72c0,.38,.07,.69,.2,.94,.13,.25,.32,.44,.56,.56,.24,.12,.52,.18,.83,.18Z" style="fill: #fff;"/>
  </g>
</svg>